<svg xmlns="http://www.w3.org/2000/svg" xmlns:xlink="http://www.w3.org/1999/xlink" width="60.937" height="46.28" viewBox="0 0 60.937 46.28"><defs><clipPath id="a"><rect width="60.937" height="46.28" fill="none"/></clipPath></defs><g transform="translate(0 0)" clip-path="url(#a)"><path d="M36.082,34.324H34.966c-7.837,0-23.473,0-31.31,0C1.2,34.323,0,33.153,0,30.763,0,15.2,0,19.127,0,3.563,0,1.177,1.207,0,3.655,0H50.638c2.419,0,3.635,1.194,3.636,3.591,0,10.493.012,1.493-.009,11.986A5.112,5.112,0,0,0,56.046,19.5a4.46,4.46,0,0,1,1.644,4.817,4.961,4.961,0,0,0,.052,2,3.856,3.856,0,0,1-.993,3.813,1.04,1.04,0,0,0-.073.91c1.323,3.482,2.676,6.953,4.029,10.424.2.516.412,1.026-.028,1.516-.462.512-1.023.385-1.6.227-1.005-.274-2.026-.494-3.024-.787a.861.861,0,0,0-1.138.444,29.817,29.817,0,0,1-1.892,2.745,1.527,1.527,0,0,1-1.112.606,1.592,1.592,0,0,1-1.009-.868c-1.142-2.8-2.209-5.629-3.322-8.44a2.9,2.9,0,0,0-.554-.674c-.2.213-.482.393-.581.644-1.094,2.761-2.16,5.532-3.229,8.3-.2.517-.4,1.019-1.067,1.095s-.983-.355-1.3-.821c-.605-.9-1.252-1.775-1.828-2.692a.721.721,0,0,0-.943-.361c-1.11.3-2.22.625-3.351.831a1.678,1.678,0,0,1-1.319-.268,1.512,1.512,0,0,1-.148-1.308c.876-2.4,1.829-4.783,2.818-7.33M47.023,13.882V7.069H7.2V27.262h29c0-1.275.09-2.506-.024-3.718a4.027,4.027,0,0,1,1.237-3.513,10.114,10.114,0,0,0,1.724-2.309,3.822,3.822,0,0,1,2.895-2.139,15.356,15.356,0,0,0,2.509-.69c.821-.282,1.61-.651,2.483-1.011m5.01,1.674a3.943,3.943,0,0,0,.05-.406c0-10.44.005-1.386,0-11.826,0-.92-.337-1.2-1.35-1.2-13.144,0-34.088,0-47.232,0-1,0-1.333.325-1.334,1.31,0,15.645,0,11.8,0,27.444,0,.994.322,1.318,1.322,1.318,8.332,0,24.463,0,32.8,0,.212,0,.568-.005.613-.109.242-.558.652-1.206.53-1.714a1.434,1.434,0,0,0-1.514-.955c-7.15.039-22.1.023-29.248.022-1.394,0-1.687-.288-1.687-1.657,0-13.569,0-7.645,0-21.213,0-1.41.289-1.689,1.743-1.689h40.8c1.522,0,1.748.225,1.748,1.743,0,8.767,0-1.958,0,6.809,0,1.536.3,1.863,1.892,2.055.269.032.541.044.876.071m3.421,7.3.376-.108a5.376,5.376,0,0,0-.777-1.14,7.514,7.514,0,0,1-2.148-2.92,1.459,1.459,0,0,0-1.359-1A7.821,7.821,0,0,1,47.911,16.5a1.609,1.609,0,0,0-1.792-.006,7.835,7.835,0,0,1-3.634,1.189,1.457,1.457,0,0,0-1.368.989,6.722,6.722,0,0,1-2.158,2.906,1.548,1.548,0,0,0-.587,1.727,7.457,7.457,0,0,1,0,3.681,1.545,1.545,0,0,0,.57,1.733,6.7,6.7,0,0,1,2.165,2.9,1.459,1.459,0,0,0,1.356,1.008,7.458,7.458,0,0,1,3.562,1.143,1.753,1.753,0,0,0,2.009-.026,7.338,7.338,0,0,1,3.486-1.114,1.414,1.414,0,0,0,1.335-.915,8.09,8.09,0,0,1,2.294-3.113,1.639,1.639,0,0,0,.507-1.113c-.014-1.545-.128-3.09-.205-4.635M35.916,40.749c1.017-.252,1.846-.424,2.653-.668a1.324,1.324,0,0,1,1.671.639c.461.713.963,1.4,1.517,2.2l2.917-7.527a8.528,8.528,0,0,0-1.542-.494c-1.664-.195-3.21-.547-4.019-2.4l-3.2,8.246m13.413-5.366,2.935,7.545c.588-.855,1.1-1.585,1.593-2.323a1.206,1.206,0,0,1,1.477-.548c.857.243,1.731.427,2.757.675-1.078-2.779-2.1-5.417-3.209-8.278-.756,1.813-2.168,2.24-3.778,2.4a9.849,9.849,0,0,0-1.775.528" transform="translate(0 0)" fill="#005eb8"/><path d="M55.311,22.319c-.872.36-1.662.729-2.483,1.011a15.329,15.329,0,0,1-2.509.689,3.824,3.824,0,0,0-2.895,2.139A10.092,10.092,0,0,1,45.7,28.467a4.027,4.027,0,0,0-1.237,3.513c.114,1.212.024,2.443.024,3.718h-29V15.506H55.311Z" transform="translate(-8.288 -8.437)" fill="#fff"/><path d="M54.521,18.086c-.335-.026-.607-.038-.876-.071-1.592-.192-1.892-.519-1.892-2.055,0-8.767,0,1.958,0-6.808,0-1.518-.226-1.743-1.747-1.743H9.207c-1.454,0-1.743.279-1.743,1.689,0,13.569,0,7.645,0,21.213,0,1.369.293,1.657,1.687,1.657,7.15,0,22.1.016,29.248-.022a1.433,1.433,0,0,1,1.514.955c.121.508-.289,1.155-.53,1.714-.045.1-.4.109-.613.109-8.332.005-24.463.006-32.8,0-1,0-1.323-.324-1.323-1.318,0-15.646,0-11.8,0-27.444,0-.985.333-1.31,1.334-1.31,13.144,0,34.088,0,47.233,0,1.013,0,1.349.281,1.35,1.2.007,10.44,0,1.387,0,11.826a3.94,3.94,0,0,1-.05.406" transform="translate(-2.488 -2.531)" fill="#d9f6fb"/><path d="M99.919,42.12a32.013,32.013,0,0,0-.171,4.744,1.639,1.639,0,0,1-.507,1.112,8.09,8.09,0,0,0-2.294,3.113A1.413,1.413,0,0,1,95.612,52a7.339,7.339,0,0,0-3.486,1.115,1.752,1.752,0,0,1-2.009.026A7.452,7.452,0,0,0,86.555,52,1.46,1.46,0,0,1,85.2,50.993a6.7,6.7,0,0,0-2.165-2.9,1.545,1.545,0,0,1-.57-1.732,7.458,7.458,0,0,0,0-3.681,1.548,1.548,0,0,1,.587-1.727,6.722,6.722,0,0,0,2.158-2.906,1.457,1.457,0,0,1,1.368-.989,7.835,7.835,0,0,0,3.634-1.189A1.61,1.61,0,0,1,92,35.873a7.821,7.821,0,0,0,3.635,1.186,1.459,1.459,0,0,1,1.359,1,7.511,7.511,0,0,0,2.148,2.92,5.376,5.376,0,0,1,.777,1.14h0m-8.813,7.987a5.591,5.591,0,1,0-5.711-5.592,5.629,5.629,0,0,0,5.711,5.592" transform="translate(-44.089 -19.37)" fill="#d9f6fb"/><path d="M77.253,79.547c1.083-2.794,2.1-5.427,3.2-8.246.809,1.849,2.355,2.2,4.019,2.4a8.589,8.589,0,0,1,1.542.494l-2.917,7.527c-.554-.8-1.056-1.487-1.517-2.2a1.324,1.324,0,0,0-1.671-.639c-.807.243-1.637.416-2.653.668" transform="translate(-41.336 -38.798)" fill="#d9f6fb"/><path d="M106.1,74.122a9.849,9.849,0,0,1,1.775-.528c1.61-.16,3.022-.587,3.778-2.4,1.109,2.86,2.131,5.5,3.209,8.278-1.027-.248-1.9-.432-2.757-.675a1.206,1.206,0,0,0-1.477.548c-.5.737-1.006,1.467-1.593,2.323L106.1,74.122" transform="translate(-56.773 -38.74)" fill="#d9f6fb"/><path d="M94.555,54.082a5.59,5.59,0,1,1,5.683-5.611,5.648,5.648,0,0,1-5.683,5.611m-.02-2.124a3.464,3.464,0,1,0-.021-6.925,3.463,3.463,0,1,0,.021,6.925" transform="translate(-47.538 -23.345)" fill="#005eb8"/><path d="M97.026,54.5a3.464,3.464,0,1,1,3.54-3.426,3.515,3.515,0,0,1-3.54,3.426" transform="translate(-50.03 -25.887)" fill="#fff"/><path d="M28,35.472a3.653,3.653,0,0,1-3.983-3.966,1.135,1.135,0,0,1,2.27,0c0,1.253.48,1.741,1.713,1.741,1.857,0,1.857-1.1,1.857-1.459s0-.753-2.049-1.234c-1.165-.274-3.587-.843-3.587-3.389,0-2.038,1.475-3.3,3.85-3.3,2.23,0,3.727,1.327,3.727,3.3a1.135,1.135,0,0,1-2.27,0c0-.715-.49-1.078-1.458-1.078-1.58,0-1.58.728-1.58,1.078,0,.491.124.82,1.845,1.224,1.23.289,3.79.889,3.79,3.4,0,2.238-1.62,3.684-4.127,3.684" transform="translate(-12.849 -12.984)" fill="#005eb8"/><path d="M31.43,24.4A1.124,1.124,0,0,1,30.3,23.286V21.871a1.135,1.135,0,0,1,2.27,0v1.415A1.124,1.124,0,0,1,31.43,24.4" transform="translate(-16.21 -11.295)" fill="#005eb8"/><path d="M31.43,48.088A1.124,1.124,0,0,1,30.3,46.976V45.561a1.135,1.135,0,0,1,2.27,0v1.415a1.124,1.124,0,0,1-1.135,1.113" transform="translate(-16.21 -24.186)" fill="#005eb8"/><path d="M68.669,24.292H48.189a.432.432,0,0,1-.435-.427V22.549a.432.432,0,0,1,.435-.426h20.48a.432.432,0,0,1,.435.426v1.316a.432.432,0,0,1-.435.427" transform="translate(-25.552 -12.038)" fill="#005eb8"/><path d="M62,36.938H48.189a.432.432,0,0,1-.435-.427V35.2a.432.432,0,0,1,.435-.426H62a.432.432,0,0,1,.435.426v1.316a.432.432,0,0,1-.435.427" transform="translate(-25.552 -18.919)" fill="#005eb8"/><path d="M58.686,49.585h-10.5a.432.432,0,0,1-.435-.427V47.842a.432.432,0,0,1,.435-.426h10.5a.432.432,0,0,1,.435.426v1.316a.432.432,0,0,1-.435.427" transform="translate(-25.552 -25.801)" fill="#005eb8"/></g></svg>