<svg xmlns="http://www.w3.org/2000/svg" width="82.269" height="121.573" viewBox="0 0 82.269 121.573"><g fill="none"><path d="M41.134,0A41.028,41.028,0,0,1,82.269,40.921V80.652A41.135,41.135,0,0,1,0,80.652V40.921A41.028,41.028,0,0,1,41.134,0Z" stroke="none"/><path d="M 41.13445663452148 12.99999237060547 C 25.62106704711914 12.99999237060547 12.99998474121094 25.52543640136719 12.99998474121094 40.92130279541016 L 12.99998474121094 80.65196228027344 C 12.99998474121094 96.04782867431641 25.62106704711914 108.5732727050781 41.13445663452148 108.5732727050781 C 56.64784622192383 108.5732727050781 69.26889801025391 96.04782867431641 69.26889801025391 80.65196228027344 L 69.26889801025391 40.92130279541016 C 69.26889801025391 25.52543640136719 56.64784622192383 12.99999237060547 41.13445663452148 12.99999237060547 M 41.13445663452148 -7.62939453125e-06 C 63.85240173339844 -7.62939453125e-06 82.26889801025391 18.32107543945312 82.26889801025391 40.92130279541016 L 82.26889801025391 80.65196228027344 C 82.26889801025391 103.2521591186523 63.85240173339844 121.5732727050781 41.13445663452148 121.5732727050781 C 18.41651153564453 121.5732727050781 -1.52587890625e-05 103.2521591186523 -1.52587890625e-05 80.65196228027344 L -1.52587890625e-05 40.92130279541016 C -1.52587890625e-05 18.32107543945312 18.41651153564453 -7.62939453125e-06 41.13445663452148 -7.62939453125e-06 Z" stroke="none" fill="#82ddef"/></g></svg>