<?xml version="1.0" encoding="utf-8"?>
<!-- Generator: Adobe Illustrator 23.1.1, SVG Export Plug-In . SVG Version: 6.00 Build 0)  -->
<svg version="1.1" id="Layer_1" xmlns="http://www.w3.org/2000/svg" xmlns:xlink="http://www.w3.org/1999/xlink" x="0px" y="0px"
	 viewBox="0 0 396 144" style="enable-background:new 0 0 396 144;" xml:space="preserve">
<style type="text/css">
	.st0{fill:#FFFFFF;}
	.st1{fill:#E81C2D;}
	.st2{fill:#005EB8;}
</style>
<g>
	<g>
		<path d="M54.68,125.24v-0.03c0-2.91,2.18-5.29,5.27-5.29c1.9,0,3.04,0.66,4.02,1.59l-1.16,1.33c-0.83-0.76-1.7-1.26-2.88-1.26
			c-1.93,0-3.37,1.59-3.37,3.6v0.03c0,2,1.42,3.63,3.38,3.63c1.26,0,2.06-0.5,2.94-1.32l1.15,1.17c-1.07,1.11-2.23,1.81-4.15,1.81
			C56.89,130.5,54.68,128.18,54.68,125.24z"/>
		<path d="M79.53,120.09h4.56c1.29,0,2.3,0.38,2.95,1.02c0.54,0.56,0.85,1.32,0.85,2.21v0.03c0,1.68-1.01,2.69-2.43,3.1l2.76,3.87
			h-2.13l-2.51-3.57h-2.25v3.57h-1.8V120.09z M83.96,125.17c1.29,0,2.1-0.67,2.1-1.71v-0.03c0-1.1-0.79-1.7-2.12-1.7h-2.62v3.44
			H83.96z"/>
		<path d="M103.8,120.09h7.59v1.61h-5.79v2.66h5.13v1.62h-5.13v2.74h5.86v1.61h-7.66V120.09z"/>
		<path d="M127.32,120.09h3.81c3.22,0,5.44,2.21,5.44,5.09v0.03c0,2.88-2.22,5.12-5.44,5.12h-3.81V120.09z M129.12,121.73v6.96h2.01
			c2.15,0,3.56-1.45,3.56-3.45v-0.03c0-2-1.4-3.48-3.56-3.48H129.12z"/>
		<path d="M152.49,120.09h1.8v10.23h-1.8V120.09z"/>
		<path d="M172.98,121.76h-3.26v-1.67h8.32v1.67h-3.26v8.57h-1.8V121.76z"/>
		<path d="M210.47,125.98v-5.89h1.8v5.82c0,1.9,0.98,2.91,2.59,2.91c1.6,0,2.58-0.95,2.58-2.84v-5.89h1.8v5.8
			c0,3.06-1.72,4.59-4.4,4.59C212.16,130.49,210.47,128.95,210.47,125.98z"/>
		<path d="M235.48,120.09h1.67l5.48,7.08v-7.08h1.77v10.23h-1.5l-5.64-7.28v7.28h-1.77V120.09z"/>
		<path d="M260.82,120.09h1.8v10.23h-1.8V120.09z"/>
		<path d="M278.5,125.24v-0.03c0-2.88,2.22-5.29,5.37-5.29s5.34,2.38,5.34,5.26v0.03c0,2.88-2.22,5.29-5.37,5.29
			C280.69,130.5,278.5,128.12,278.5,125.24z M287.32,125.24v-0.03c0-1.99-1.45-3.63-3.48-3.63c-2.03,0-3.45,1.61-3.45,3.6v0.03
			c0,1.99,1.45,3.63,3.48,3.63C285.9,128.84,287.32,127.23,287.32,125.24z"/>
		<path d="M305.07,120.09h1.67l5.48,7.08v-7.08h1.77v10.23h-1.5l-5.64-7.28v7.28h-1.77V120.09z"/>
	</g>
	<g>
		<path d="M155.99,72.55c-5.19,0-9.23,2.12-12.35,6.46c-2.38-4.18-6.39-6.46-11.4-6.46c-5.42,0-8.62,2.64-10.79,5.41v-3.78
			c0-0.48-0.39-0.88-0.88-0.88h-4.72c-0.48,0-0.88,0.39-0.88,0.88v34.75c0,0.48,0.39,0.88,0.88,0.88h4.72
			c0.48,0,0.88-0.39,0.88-0.88V89.07c0-6.09,3.88-10.52,9.22-10.52c5.3,0,8.47,3.7,8.47,9.9v20.48c0,0.48,0.39,0.88,0.88,0.88h4.65
			c0.48,0,0.88-0.39,0.88-0.88V88.86c0-7.12,4.6-10.31,9.15-10.31c5.43,0,8.54,3.66,8.54,10.04v20.35c0,0.48,0.39,0.88,0.88,0.88
			h4.72c0.48,0,0.88-0.39,0.88-0.88V87.36C169.71,78.22,164.46,72.55,155.99,72.55z"/>
		<path d="M222.12,80.62v-6.44c0-0.48-0.39-0.88-0.88-0.88h-4.72c-0.48,0-0.88,0.39-0.88,0.88v34.75c0,0.48,0.39,0.88,0.88,0.88
			h4.72c0.48,0,0.88-0.39,0.88-0.88V95.14c0-9.14,4.93-15.59,13.51-15.59c0.49,0,0.89-0.37,0.89-0.86v-5.12
			c0-0.48-0.39-0.89-0.87-0.89C229.98,72.62,225.09,75.63,222.12,80.62z"/>
		<path d="M241.55,109.81h4.72c0.48,0,0.88-0.39,0.88-0.88V74.18c0-0.48-0.39-0.88-0.88-0.88h-4.72c-0.48,0-0.88,0.39-0.88,0.88
			v34.75C240.67,109.42,241.06,109.81,241.55,109.81z"/>
		<path d="M271.99,104.7c-6.93,0-12.36-5.76-12.36-13.25c0-7.31,5.28-13.04,12.02-13.04c4.39,0,7.29,2.1,10.08,4.94
			c0.35,0.36,0.92,0.36,1.27,0l3.11-3.3c0.32-0.34,0.33-0.87,0.01-1.21c-3.12-3.25-7.32-6.29-14.4-6.29
			c-10.31,0-18.7,8.54-18.7,19.04v0.14c0,10.42,8.39,18.9,18.7,18.9c7.15,0,11.44-3.28,14.68-6.83c0.32-0.35,0.29-0.9-0.06-1.23
			l-2.96-2.78c-0.35-0.33-0.9-0.29-1.23,0.05C278.83,103.29,275.56,104.7,271.99,104.7z"/>
		<path d="M306.09,72.83c-5.37,0-9.32,1.28-12.87,2.88c-0.42,0.19-0.61,0.67-0.46,1.1l1.39,3.79c0.18,0.48,0.72,0.7,1.19,0.49
			c3.03-1.38,6.25-2.41,10.2-2.41c4.52,0,9.9,1.56,9.9,9.02v0.43c-2.63-0.7-5.75-1.31-10.24-1.31c-9.68,0-15.7,4.6-15.7,12.01v0.14
			c0,7.62,6.94,11.6,13.78,11.6c5.93,0,9.78-2.5,12.16-5.03v3.4c0,0.48,0.39,0.88,0.88,0.88h4.51c0.48,0,0.88-0.39,0.88-0.88v-21.3
			c0-4.61-1.28-8.22-3.79-10.74C315.22,74.19,311.24,72.83,306.09,72.83z M315.51,93.28v2.95c0,5.1-4.81,8.95-11.2,8.95
			c-3.98,0-8.26-2.01-8.26-6.56c0-4.19,3.63-6.69,9.7-6.69C309.03,91.93,312.23,92.37,315.51,93.28z"/>
		<g>
			<g>
				<path d="M323.62,77.3v-0.03c0-2.88,2.34-5.29,5.31-5.29c2.97,0,5.28,2.38,5.28,5.26v0.03c0,2.88-2.34,5.29-5.31,5.29
					C325.93,82.56,323.62,80.18,323.62,77.3z M333.65,77.27v-0.03c0-2.62-2.03-4.74-4.72-4.74c-2.7,0-4.75,2.15-4.75,4.77v0.03
					c0,2.62,2.03,4.74,4.72,4.74C331.6,82.04,333.65,79.89,333.65,77.27z M326.77,74.35h2.47c0.73,0,1.32,0.22,1.68,0.59
					c0.29,0.29,0.45,0.7,0.45,1.17v0.03c0,0.89-0.53,1.45-1.29,1.68l1.49,2.08h-1.26l-1.35-1.91h-1.15v1.91h-1.05V74.35z
					 M329.2,77.05c0.69,0,1.1-0.34,1.1-0.86v-0.03c0-0.55-0.41-0.86-1.1-0.86h-1.37v1.75H329.2z"/>
			</g>
		</g>
		<path d="M192.86,72.55c-9.83,0-17.54,8.33-17.54,18.97v0.14c0,10.82,7.83,18.97,18.22,18.97c5.86,0,10.57-1.96,14.8-6.6
			c0.33-0.36,0.3-0.94-0.06-1.27l-2.88-2.58c-0.35-0.31-0.88-0.28-1.21,0.06c-3.16,3.23-6.58,4.6-10.51,4.6
			c-6.19,0-10.83-4.28-11.74-10.73c0,0,26.48,0.03,27.23,0c0.75-0.03,0.75-1.61,0.75-2.32C209.92,80.46,202.91,72.55,192.86,72.55z
			 M192.73,78.21c6.85,0,9.93,5.46,10.59,10.79h-21.37C182.83,82.61,187.19,78.21,192.73,78.21z"/>
	</g>
	<g>
		<path d="M42.56,57.3c-10.03,0-17.89-8.4-17.89-19.26c0-10.82,7.69-18.98,17.89-18.98c5.28,0,9.57,1.66,14.4,6.19
			c0.35,0.33,0.91,0.33,1.25-0.02l3.32-3.57c0.33-0.36,0.31-0.92-0.04-1.25c-4.54-4.2-9.76-7.56-18.86-7.56
			c-13.89,0-24.77,11.12-24.77,25.32v0.14c0,14.36,10.56,25.18,24.57,25.18c9.33,0,15.04-3.99,19.37-8.38
			c0.34-0.35,0.33-0.9-0.02-1.24l-3.18-3.12c-0.34-0.33-0.87-0.32-1.22,0C52.97,54.91,48.88,57.3,42.56,57.3z"/>
		<path d="M83.2,25.42c-10.68,0-19.04,8.36-19.04,19.04v0.14c0,10.6,8.3,18.9,18.9,18.9c10.72,0,19.11-8.36,19.11-19.18
			C102.18,33.72,93.84,25.42,83.2,25.42z M83.2,57.57c-6.97,0-12.43-5.76-12.43-13.25c0-7.43,5.29-13.04,12.29-13.04
			s12.5,5.79,12.5,13.18v0.14C95.56,51.99,90.25,57.57,83.2,57.57z"/>
		<path d="M131.43,41.32V61.8c0,0.48,0.39,0.88,0.88,0.88h4.65c0.48,0,0.88-0.39,0.88-0.88V41.73c0-7.13,4.6-10.31,9.15-10.31
			c5.43,0,8.54,3.66,8.54,10.04V61.8c0,0.48,0.39,0.88,0.88,0.88h4.72c0.48,0,0.88-0.39,0.88-0.88V40.23
			c0-9.13-5.25-14.81-13.72-14.81c-5.18,0-9.23,2.11-12.35,6.46c-2.38-4.18-6.39-6.46-11.4-6.46c-5.42,0-8.62,2.64-10.79,5.41v-3.78
			c0-0.48-0.39-0.88-0.88-0.88h-4.72c-0.48,0-0.88,0.39-0.88,0.88V61.8c0,0.48,0.39,0.88,0.88,0.88h4.72c0.48,0,0.88-0.39,0.88-0.88
			V41.94c0-6.09,3.88-10.52,9.22-10.52C128.27,31.42,131.43,35.12,131.43,41.32z"/>
		<path d="M218.18,62.68h4.72c0.48,0,0.88-0.39,0.88-0.88V40.23c0-9.13-5.25-14.81-13.72-14.81c-5.18,0-9.23,2.11-12.35,6.46
			c-2.38-4.18-6.39-6.46-11.4-6.46c-5.42,0-8.62,2.64-10.79,5.41v-3.78c0-0.48-0.39-0.88-0.88-0.88h-4.72
			c-0.48,0-0.88,0.39-0.88,0.88V61.8c0,0.48,0.39,0.88,0.88,0.88h4.72c0.48,0,0.88-0.39,0.88-0.88V41.94
			c0-6.09,3.88-10.52,9.22-10.52c5.3,0,8.47,3.7,8.47,9.9V61.8c0,0.48,0.39,0.88,0.88,0.88h4.65c0.48,0,0.88-0.39,0.88-0.88V41.73
			c0-7.13,4.6-10.31,9.15-10.31c5.43,0,8.54,3.66,8.54,10.04V61.8C217.31,62.29,217.7,62.68,218.18,62.68z"/>
		<path d="M244.42,63.43c4.81,0,8.58-1.82,11.47-5.56v3.93c0,0.48,0.39,0.88,0.88,0.88h4.65c0.48,0,0.88-0.39,0.88-0.88V27.05
			c0-0.48-0.39-0.88-0.88-0.88h-4.65c-0.48,0-0.88,0.39-0.88,0.88v19.94c0,6.15-4.1,10.45-9.97,10.45c-5.73,0-9.15-3.75-9.15-10.04
			V27.05c0-0.48-0.39-0.88-0.88-0.88h-4.72c-0.48,0-0.88,0.39-0.88,0.88v21.64C230.3,57.65,235.84,63.43,244.42,63.43z"/>
		<path d="M276.09,41.87c0-6.15,4.1-10.45,9.97-10.45c5.73,0,9.15,3.75,9.15,10.04V61.8c0,0.48,0.39,0.88,0.88,0.88h4.72
			c0.48,0,0.88-0.39,0.88-0.88V40.16c0-8.95-5.54-14.74-14.12-14.74c-4.79,0-8.64,1.86-11.47,5.53v-3.91c0-0.48-0.39-0.88-0.88-0.88
			h-4.72c-0.48,0-0.88,0.39-0.88,0.88V61.8c0,0.48,0.39,0.88,0.88,0.88h4.72c0.48,0,0.88-0.39,0.88-0.88V41.87z"/>
		<g>
			<path d="M314.24,15.52h-4.9c-0.43,0-0.79,0.35-0.79,0.79v4.71c0,0.43,0.35,0.79,0.79,0.79h4.9c0.43,0,0.79-0.35,0.79-0.79v-4.71
				C315.02,15.88,314.67,15.52,314.24,15.52z"/>
			<path d="M315.03,61.8V27.05c0-0.48-0.39-0.88-0.88-0.88h-4.72c-0.48,0-0.88,0.39-0.88,0.88V61.8c0,0.48,0.39,0.88,0.88,0.88h4.72
				C314.63,62.68,315.03,62.29,315.03,61.8z"/>
		</g>
		<path d="M335.54,57.3c-3.64,0-5.33-1.67-5.33-5.26V32.03h7.27c0.48,0,0.88-0.39,0.88-0.88v-4.11c0-0.48-0.39-0.88-0.88-0.88h-7.27
			V16.4c0-0.48-0.39-0.88-0.88-0.88h-4.72c-0.48,0-0.88,0.39-0.88,0.88v9.77h-4.04c-0.48,0-0.88,0.39-0.88,0.88v4.11
			c0,0.48,0.39,0.88,0.88,0.88h4.04l0,20.63c0,5.8,4.66,10.59,10.46,10.63c2.13,0.02,4.12-0.37,6.08-1.25c0.62-0.28,1-0.92,1-1.59
			l0-3.36c0-0.63-0.66-1.05-1.23-0.8C338.12,57.13,336.97,57.3,335.54,57.3z"/>
		<path d="M371.15,26.73L360.42,54.6l-12.17-27.9c-0.14-0.32-0.46-0.53-0.8-0.53h-5.21c-0.64,0-1.06,0.66-0.8,1.24l15.76,34.53
			c-2.18,5.02-4.06,6.01-6.57,6.01c-1.79,0-3.27-0.27-4.99-1.09c-0.46-0.22-1.01-0.04-1.21,0.43l-1.56,3.66
			c-0.18,0.43,0.02,0.95,0.44,1.15c2.91,1.35,4.91,1.71,7.52,1.71c5.72,0,9.28-3,12.3-10.35l14.66-36.08
			c0.23-0.58-0.19-1.21-0.81-1.21h-5.01C371.6,26.17,371.28,26.39,371.15,26.73z"/>
	</g>
	<g>
		<path class="st0" d="M83.26,38.15L40.8,113.64c9.28-2.16,17.58-4.15,19.01-4.09c1.06,0.04-2.2,3.42-0.8,4.16
			c1.83,0.97,31.92-6.51,66.57-0.3L83.26,38.15z"/>
		<path class="st1" d="M66.44,99.98c0.76,0.75,20.29-5.18,46.78-3.9l-4.78-8.81c-9.39-0.05-17.15,0.63-23.22,1.46
			c-0.79,0.11-2.11-1.14-2.11-1.14s-1.58,1.69-2.24,1.8c-7.34,1.23-12.95,2.47-13.51,2.13c-1.97-1.17,2.19-4.36,0.44-4.39
			c-1.43-0.03-6.01,1.83-11.09,2.93l-4.78,8.49c5.86-1.23,14.02-3.42,15.08-2.93C68.61,96.36,65.6,99.15,66.44,99.98z"/>
		<path class="st2" d="M70.42,84.55c1.64,0.74-1.58,4.16-0.53,4.61c0.72,0.3,16.32-4.33,36.83-4.6l-23.46-41.7l-25.08,44.6
			C64.13,86.02,69.41,84.1,70.42,84.55z"/>
		<path class="st1" d="M63.82,102.53c-1.68-0.81,2.2-4.34,0.44-4.39c-1.12-0.03-8.68,1.96-13.81,3.06l-5.1,9.07
			c5.03-1.09,15.68-3.88,16.91-3.29c1.81,0.87-1.62,4.08-0.44,4.39c2.32,0.62,25.15-5.73,59.39-1.1l-6.36-11.26
			C85.59,96.66,65.43,103.31,63.82,102.53z"/>
		<path class="st0" d="M83.26,88.4l-7.81,5.34c-0.42,0.29-0.96-0.13-0.8-0.61l2.97-8.6l-7.72-5.28c-0.43-0.29-0.22-0.96,0.3-0.96
			h9.58l2.99-8.66c0.16-0.47,0.83-0.47,1,0l2.99,8.66l9.58,0c0.52,0,0.72,0.67,0.3,0.96l-7.72,5.28l2.97,8.6
			c0.17,0.48-0.38,0.89-0.8,0.61L83.26,88.4z"/>
	</g>
</g>
</svg>
